<mxfile host="app.diagrams.net" modified="2024-02-23T13:06:14.072Z" agent="Mozilla/5.0 (Macintosh; Intel Mac OS X 10_15_7) AppleWebKit/605.1.15 (KHTML, like Gecko) Version/17.3.1 Safari/605.1.15" etag="T11ttj1KDoQT1L08oo2V" version="23.1.6" type="device">
  <diagram name="Seite-1" id="Jsu3EZeZYdBz3_dgnLTg">
    <mxGraphModel dx="830" dy="587" grid="1" gridSize="10" guides="1" tooltips="1" connect="1" arrows="1" fold="1" page="1" pageScale="1" pageWidth="827" pageHeight="1169" math="0" shadow="0">
      <root>
        <mxCell id="0" />
        <mxCell id="1" parent="0" />
        <mxCell id="69WLc_U5uE5qoxllxKAw-1" value="Student" style="shape=umlActor;verticalLabelPosition=bottom;verticalAlign=top;html=1;" vertex="1" parent="1">
          <mxGeometry x="40" y="300" width="30" height="60" as="geometry" />
        </mxCell>
        <mxCell id="69WLc_U5uE5qoxllxKAw-4" value="Rapla" style="shape=umlActor;verticalLabelPosition=bottom;verticalAlign=top;html=1;" vertex="1" parent="1">
          <mxGeometry x="360" y="125" width="30" height="60" as="geometry" />
        </mxCell>
        <mxCell id="69WLc_U5uE5qoxllxKAw-5" value="Dualis" style="shape=umlActor;verticalLabelPosition=bottom;verticalAlign=top;html=1;" vertex="1" parent="1">
          <mxGeometry x="360" y="245" width="30" height="60" as="geometry" />
        </mxCell>
        <mxCell id="69WLc_U5uE5qoxllxKAw-6" value="Stundenplananzeige in Form eines Kalenders" style="ellipse;whiteSpace=wrap;html=1;" vertex="1" parent="1">
          <mxGeometry x="150" y="120" width="140" height="70" as="geometry" />
        </mxCell>
        <mxCell id="69WLc_U5uE5qoxllxKAw-7" value="Notenübersicht" style="ellipse;whiteSpace=wrap;html=1;" vertex="1" parent="1">
          <mxGeometry x="150" y="240" width="140" height="70" as="geometry" />
        </mxCell>
        <mxCell id="69WLc_U5uE5qoxllxKAw-8" value="Mensa Speiseplan" style="ellipse;whiteSpace=wrap;html=1;" vertex="1" parent="1">
          <mxGeometry x="150" y="360" width="140" height="70" as="geometry" />
        </mxCell>
        <mxCell id="69WLc_U5uE5qoxllxKAw-12" value="" style="endArrow=none;html=1;edgeStyle=orthogonalEdgeStyle;rounded=0;exitX=0.5;exitY=0.5;exitDx=0;exitDy=0;exitPerimeter=0;entryX=0;entryY=0.5;entryDx=0;entryDy=0;" edge="1" parent="1" source="69WLc_U5uE5qoxllxKAw-1" target="69WLc_U5uE5qoxllxKAw-6">
          <mxGeometry relative="1" as="geometry">
            <mxPoint x="80" y="310" as="sourcePoint" />
            <mxPoint x="240" y="310" as="targetPoint" />
          </mxGeometry>
        </mxCell>
        <mxCell id="69WLc_U5uE5qoxllxKAw-15" value="" style="endArrow=none;html=1;edgeStyle=orthogonalEdgeStyle;rounded=0;exitX=0.5;exitY=0.5;exitDx=0;exitDy=0;exitPerimeter=0;entryX=0;entryY=0.5;entryDx=0;entryDy=0;" edge="1" parent="1" source="69WLc_U5uE5qoxllxKAw-1" target="69WLc_U5uE5qoxllxKAw-7">
          <mxGeometry relative="1" as="geometry">
            <mxPoint x="65" y="340" as="sourcePoint" />
            <mxPoint x="160" y="165" as="targetPoint" />
          </mxGeometry>
        </mxCell>
        <mxCell id="69WLc_U5uE5qoxllxKAw-16" value="" style="endArrow=none;html=1;edgeStyle=orthogonalEdgeStyle;rounded=0;exitX=0.5;exitY=0.5;exitDx=0;exitDy=0;exitPerimeter=0;entryX=0;entryY=0.5;entryDx=0;entryDy=0;" edge="1" parent="1" source="69WLc_U5uE5qoxllxKAw-1" target="69WLc_U5uE5qoxllxKAw-8">
          <mxGeometry relative="1" as="geometry">
            <mxPoint x="65" y="340" as="sourcePoint" />
            <mxPoint x="160" y="285" as="targetPoint" />
          </mxGeometry>
        </mxCell>
        <mxCell id="69WLc_U5uE5qoxllxKAw-17" value="" style="endArrow=none;html=1;edgeStyle=orthogonalEdgeStyle;rounded=0;exitX=1;exitY=0.5;exitDx=0;exitDy=0;entryX=0.5;entryY=0.5;entryDx=0;entryDy=0;entryPerimeter=0;" edge="1" parent="1" source="69WLc_U5uE5qoxllxKAw-6" target="69WLc_U5uE5qoxllxKAw-4">
          <mxGeometry relative="1" as="geometry">
            <mxPoint x="65" y="340" as="sourcePoint" />
            <mxPoint x="160" y="405" as="targetPoint" />
          </mxGeometry>
        </mxCell>
        <mxCell id="69WLc_U5uE5qoxllxKAw-18" value="" style="endArrow=none;html=1;edgeStyle=orthogonalEdgeStyle;rounded=0;exitX=1;exitY=0.5;exitDx=0;exitDy=0;entryX=0.5;entryY=0.5;entryDx=0;entryDy=0;entryPerimeter=0;" edge="1" parent="1" source="69WLc_U5uE5qoxllxKAw-7" target="69WLc_U5uE5qoxllxKAw-5">
          <mxGeometry relative="1" as="geometry">
            <mxPoint x="300" y="165" as="sourcePoint" />
            <mxPoint x="385" y="165" as="targetPoint" />
          </mxGeometry>
        </mxCell>
        <mxCell id="69WLc_U5uE5qoxllxKAw-19" value="To-Do Liste/Lernplan" style="ellipse;whiteSpace=wrap;html=1;" vertex="1" parent="1">
          <mxGeometry x="150" y="480" width="140" height="70" as="geometry" />
        </mxCell>
        <mxCell id="69WLc_U5uE5qoxllxKAw-20" value="Studierendenwerk" style="shape=umlActor;verticalLabelPosition=bottom;verticalAlign=top;html=1;" vertex="1" parent="1">
          <mxGeometry x="360" y="365" width="30" height="60" as="geometry" />
        </mxCell>
        <mxCell id="69WLc_U5uE5qoxllxKAw-21" value="Datenbank" style="shape=umlActor;verticalLabelPosition=bottom;verticalAlign=top;html=1;" vertex="1" parent="1">
          <mxGeometry x="360" y="485" width="30" height="60" as="geometry" />
        </mxCell>
        <mxCell id="69WLc_U5uE5qoxllxKAw-24" value="" style="endArrow=none;html=1;edgeStyle=orthogonalEdgeStyle;rounded=0;exitX=1;exitY=0.5;exitDx=0;exitDy=0;entryX=0.5;entryY=0.5;entryDx=0;entryDy=0;entryPerimeter=0;" edge="1" parent="1" source="69WLc_U5uE5qoxllxKAw-8" target="69WLc_U5uE5qoxllxKAw-20">
          <mxGeometry relative="1" as="geometry">
            <mxPoint x="300" y="285" as="sourcePoint" />
            <mxPoint x="385" y="285" as="targetPoint" />
          </mxGeometry>
        </mxCell>
        <mxCell id="69WLc_U5uE5qoxllxKAw-25" value="" style="endArrow=none;html=1;edgeStyle=orthogonalEdgeStyle;rounded=0;exitX=1;exitY=0.5;exitDx=0;exitDy=0;entryX=0.5;entryY=0.5;entryDx=0;entryDy=0;entryPerimeter=0;" edge="1" parent="1" source="69WLc_U5uE5qoxllxKAw-19" target="69WLc_U5uE5qoxllxKAw-21">
          <mxGeometry relative="1" as="geometry">
            <mxPoint x="300" y="405" as="sourcePoint" />
            <mxPoint x="385" y="405" as="targetPoint" />
          </mxGeometry>
        </mxCell>
        <mxCell id="69WLc_U5uE5qoxllxKAw-26" value="" style="endArrow=none;html=1;edgeStyle=orthogonalEdgeStyle;rounded=0;exitX=0.5;exitY=0.5;exitDx=0;exitDy=0;entryX=0;entryY=0.5;entryDx=0;entryDy=0;exitPerimeter=0;" edge="1" parent="1" source="69WLc_U5uE5qoxllxKAw-1" target="69WLc_U5uE5qoxllxKAw-19">
          <mxGeometry relative="1" as="geometry">
            <mxPoint x="300" y="525" as="sourcePoint" />
            <mxPoint x="385" y="525" as="targetPoint" />
          </mxGeometry>
        </mxCell>
        <mxCell id="69WLc_U5uE5qoxllxKAw-28" value="Dokumentenablage" style="ellipse;whiteSpace=wrap;html=1;" vertex="1" parent="1">
          <mxGeometry x="160" y="600" width="140" height="70" as="geometry" />
        </mxCell>
        <mxCell id="69WLc_U5uE5qoxllxKAw-29" value="" style="endArrow=none;html=1;edgeStyle=orthogonalEdgeStyle;rounded=0;exitX=1;exitY=0.5;exitDx=0;exitDy=0;entryX=0.5;entryY=0.5;entryDx=0;entryDy=0;entryPerimeter=0;" edge="1" parent="1" source="69WLc_U5uE5qoxllxKAw-28" target="69WLc_U5uE5qoxllxKAw-21">
          <mxGeometry relative="1" as="geometry">
            <mxPoint x="300" y="525" as="sourcePoint" />
            <mxPoint x="385" y="525" as="targetPoint" />
            <Array as="points">
              <mxPoint x="340" y="635" />
              <mxPoint x="340" y="515" />
            </Array>
          </mxGeometry>
        </mxCell>
        <mxCell id="69WLc_U5uE5qoxllxKAw-30" value="" style="endArrow=none;html=1;edgeStyle=orthogonalEdgeStyle;rounded=0;exitX=0.5;exitY=0.5;exitDx=0;exitDy=0;entryX=0;entryY=0.5;entryDx=0;entryDy=0;exitPerimeter=0;" edge="1" parent="1" source="69WLc_U5uE5qoxllxKAw-1" target="69WLc_U5uE5qoxllxKAw-28">
          <mxGeometry relative="1" as="geometry">
            <mxPoint x="310" y="535" as="sourcePoint" />
            <mxPoint x="395" y="535" as="targetPoint" />
            <Array as="points">
              <mxPoint x="110" y="330" />
              <mxPoint x="110" y="635" />
            </Array>
          </mxGeometry>
        </mxCell>
        <mxCell id="69WLc_U5uE5qoxllxKAw-31" value="Chatroom" style="ellipse;whiteSpace=wrap;html=1;" vertex="1" parent="1">
          <mxGeometry x="150" y="720" width="140" height="70" as="geometry" />
        </mxCell>
        <mxCell id="69WLc_U5uE5qoxllxKAw-32" value="" style="endArrow=none;html=1;edgeStyle=orthogonalEdgeStyle;rounded=0;exitX=0.5;exitY=0.5;exitDx=0;exitDy=0;entryX=0;entryY=0.5;entryDx=0;entryDy=0;exitPerimeter=0;" edge="1" parent="1" source="69WLc_U5uE5qoxllxKAw-1" target="69WLc_U5uE5qoxllxKAw-31">
          <mxGeometry relative="1" as="geometry">
            <mxPoint x="65" y="340" as="sourcePoint" />
            <mxPoint x="160" y="645" as="targetPoint" />
          </mxGeometry>
        </mxCell>
        <mxCell id="69WLc_U5uE5qoxllxKAw-33" value="" style="endArrow=none;html=1;edgeStyle=orthogonalEdgeStyle;rounded=0;exitX=0.5;exitY=0.5;exitDx=0;exitDy=0;exitPerimeter=0;entryX=0;entryY=0.5;entryDx=0;entryDy=0;" edge="1" parent="1" source="69WLc_U5uE5qoxllxKAw-1" target="69WLc_U5uE5qoxllxKAw-34">
          <mxGeometry relative="1" as="geometry">
            <mxPoint x="65" y="340" as="sourcePoint" />
            <mxPoint x="90" y="870" as="targetPoint" />
            <Array as="points">
              <mxPoint x="110" y="330" />
              <mxPoint x="110" y="876" />
              <mxPoint x="150" y="876" />
            </Array>
          </mxGeometry>
        </mxCell>
        <mxCell id="69WLc_U5uE5qoxllxKAw-34" value="ÖPNV &quot;Tafel&quot;" style="ellipse;whiteSpace=wrap;html=1;" vertex="1" parent="1">
          <mxGeometry x="150" y="840" width="140" height="70" as="geometry" />
        </mxCell>
        <mxCell id="69WLc_U5uE5qoxllxKAw-36" value="Messaging-Service (tbd)" style="shape=umlActor;verticalLabelPosition=bottom;verticalAlign=top;html=1;" vertex="1" parent="1">
          <mxGeometry x="360" y="725" width="30" height="60" as="geometry" />
        </mxCell>
        <mxCell id="69WLc_U5uE5qoxllxKAw-38" value="" style="endArrow=none;html=1;edgeStyle=orthogonalEdgeStyle;rounded=0;entryX=0.5;entryY=0.5;entryDx=0;entryDy=0;entryPerimeter=0;exitX=1;exitY=0.5;exitDx=0;exitDy=0;" edge="1" parent="1" source="69WLc_U5uE5qoxllxKAw-31" target="69WLc_U5uE5qoxllxKAw-36">
          <mxGeometry relative="1" as="geometry">
            <mxPoint x="290" y="755" as="sourcePoint" />
            <mxPoint x="375" y="754.5799999999999" as="targetPoint" />
          </mxGeometry>
        </mxCell>
        <mxCell id="69WLc_U5uE5qoxllxKAw-39" value="TBD" style="shape=umlActor;verticalLabelPosition=bottom;verticalAlign=top;html=1;" vertex="1" parent="1">
          <mxGeometry x="360" y="845" width="30" height="60" as="geometry" />
        </mxCell>
        <mxCell id="69WLc_U5uE5qoxllxKAw-40" value="" style="endArrow=none;html=1;edgeStyle=orthogonalEdgeStyle;rounded=0;entryX=0.5;entryY=0.5;entryDx=0;entryDy=0;entryPerimeter=0;exitX=1;exitY=0.5;exitDx=0;exitDy=0;" edge="1" parent="1" source="69WLc_U5uE5qoxllxKAw-34" target="69WLc_U5uE5qoxllxKAw-39">
          <mxGeometry relative="1" as="geometry">
            <mxPoint x="290" y="870" as="sourcePoint" />
            <mxPoint x="375" y="870" as="targetPoint" />
            <Array as="points">
              <mxPoint x="330" y="875" />
              <mxPoint x="330" y="875" />
            </Array>
          </mxGeometry>
        </mxCell>
        <mxCell id="69WLc_U5uE5qoxllxKAw-41" value="&lt;font style=&quot;font-size: 12px;&quot;&gt;Optionale&lt;br&gt;Funktionen&lt;/font&gt;" style="shape=umlFrame;whiteSpace=wrap;html=1;pointerEvents=0;width=80;height=35;" vertex="1" parent="1">
          <mxGeometry x="20" y="585" width="430" height="355" as="geometry" />
        </mxCell>
        <mxCell id="69WLc_U5uE5qoxllxKAw-43" value="Geplante&lt;br&gt;Funktionen" style="shape=umlFrame;whiteSpace=wrap;html=1;pointerEvents=0;width=80;height=35;" vertex="1" parent="1">
          <mxGeometry x="20" y="110" width="430" height="465" as="geometry" />
        </mxCell>
      </root>
    </mxGraphModel>
  </diagram>
</mxfile>
